<?xml version="1.0" encoding="UTF-8"?>
<svg id="Layer_2" data-name="Layer 2" xmlns="http://www.w3.org/2000/svg" viewBox="0 0 137.68 221.58">
  <g id="Layer_2-2" data-name="Layer 2">
    <path d="m94.01.49c5.82.89,8.48,6.37,9.2,9.09.04.85.35,5.65,4.32,8.92,2.26,1.86,4.68,2.38,5.87,2.55,3.36.87,6.72,1.74,10.09,2.6,1.63.73,4.08,2.13,4.49,4.38.54,2.94-2.68,5.75-3.88,6.82-5.94,5.26-25.77,23.65-53.04,48.83-.35.41-.81,1.06-1,1.94-.26,1.19.11,2.19.28,2.66.53,1.5,1.89,5.41,1.27,8.26-.18.81-.62,2.03-1.94,3.38-14.04,18.14-28.08,36.28-42.12,54.43-3.09,3.75-6.17,7.5-9.26,11.25L1.62,181.9c-.14.19-1.77,2.45-.83,5.1.71,2,2.41,2.87,2.77,3.05,12.56,6.32,25.13,12.64,37.69,18.95.91.5,2.01,1,3.27,1.44,1.94.67,3.69.97,5.1,1.11,29.34,3.18,58.68,6.36,88.01,9.53" fill="none" stroke="#231f20" stroke-miterlimit="10"/>
  </g>
</svg>