<?xml version="1.0" encoding="UTF-8"?>
<svg id="Layer_1" data-name="Layer 1" xmlns="http://www.w3.org/2000/svg" viewBox="0 0 357.21 178.6">
  <g id="EYMlYc">
    <g>
      <path d="m0,33.94C0,23.04-.01,12.15.05,1.25.06.83.83.06,1.25.06,9.41-.02,17.56,0,25.72,0c2.48,2.41,4.84,5.09,7.64,7.13,2.34,1.7,4.15,2.79,5.76,5.25,2.36,3.59,4.76,5.91,9.31,5.52,6.34-.55,13.43-3.79,19.34-6.04,6.43-2.45,5.76-6.79,2.6-11.85,14.65,0,29.29,0,43.94,0,2.66,3.85,7.68,6.65,11.96,8.34,2.23.88,4.56,1.3,6.96,1.16,2.14-.13,5.07-1.89,7.05-1.5,1.77.35,3.17,2.43,5.08,2.96,2.13.59,4.06.2,6.14-.37,1.25-.34,3.53-1.51,4.81-.48.91.73,1.38,4.32,1.94,5.55,1.98,4.3,5.61,7.56,8.06,11.6,1.14,1.88,2.63,3.88,3.05,6.05.36,1.9-.5,3.95.13,5.79.62,1.8,2.2,2.62,2.28,4.8.1,2.42-1.57,4.19-2.78,6.12-2.14,3.39-6.03,7.51-6.99,11.35-1.11,4.42.31,10.12.65,14.59.34,4.35-.77,8.56-.92,12.89-.16,4.66,3.25,5.53,5.98,8.73,1.97,2.31,1.67,5.6,3.93,7.17,7.46,5.19,19.15-.78,27.16-1.43,4.78-.38,6.38,3.73,9.24,6.9,2.08,2.3,4.5,6.61,7.31,4.93,1.46-.87,1.41-2.2,3.57-2.36.96-.07,2.29.12,3.21.19,4.35.35,8.26,1.4,12.48,2.21,4.99.96,4.68-3.05,8.42-4.73,3-1.34,5.14,1.94,7.3,3.69,3.64,2.95,6.79,5.62,11.61,4.93,2.08-.3,3.21-.6,4.75-2.04,1.45-1.36.78-1.82,2.54-1.7,3.69.25,8.51,7.15,12.04,4.41,1.94-1.5,3.02-7.22,4-9.67.59-1.47,1.2-2.82.73-4.42-.53-1.83-2.52-2.08-3.13-3.53-1.32-3.15,3.33-4.53,5.37-5.16,3.69-1.13,7.97-.47,10.27-4.24,1.58-2.58,2.08-6.98,1.03-9.78-1.56-4.15-3.94-6.99-2.03-11.61,1.33-3.24,4.33-6.3,7.09-8.41,3.57-2.74,6.68-3.61,7.98-8.17.59-2.06.89-4.15,3.27-4.5,3.01-.43,5.66,2.84,8.73,2.34,2.82-.46,3.49-5.19,6.17-4.81,1.36.2,1.88,2.07,2.49,3.07,1,1.65,2.04,2.24,3.34,3.54,2.89,2.9,1.28,5.51.73,9.06-.78,5.01,1.15,7.88,3.43,12.04,2.34,4.25.47,8.09-.96,12.44-1.68,5.14-2.91,10.06-3.64,15.41-.55,4.05-1.17,8.76-4.52,11.59,2.31,2.13,2.08,2.32-.03,4.19,2.69.92,3.09-.83,4.12-3.25,1.6,1.74,4.38,3.99,3.46,6.44-.74,1.98-2.75,2.57-4.27,1.75-1.98-1.08-2.91-3.66-5.14-4.79-1.7-.86-4.01-1.84-5.91-1.33-2.21.59-4.58,3.15-6.89,4.05-2.65,1.04-6.04.91-8.5,2.19-1.86.97-3.22,2.67-2.68,4.66.77,2.83,2.78,1.75,5.06,1.43.44,7.78-8.17,7.07-13.39,6.76-4.22-.25-4.34,2.96-5.24,6.4-.89,3.45-2.83,7.15.44,9.56,5.63,4.16,11.54-.46,14.75-5.07,1-1.44,3.8-4.51,6.01-3.37,2.13,1.1,1.87,6.95,2.93,8.86,2.11,3.77,10.22,15.93,12.86,6.29.65-2.37-.14-4.74,2.14-6.45,2.1-1.58,4.88-.46,7.02-1.96,6.31-4.4-5.8-9.57-4.78-14.25.34-1.59,1.72-1.23,1.32-3.09-.31-1.44-2.37-2.32-3.37-3.15-2.09-1.75-3.6-4.11-1.54-6.42,2,2.11,3.18,5.14,5.52,6.92,2.82,2.14,4.28.79,7.37.12,2.53-.55,6.29.65,8.59-.74,2.6-1.57,4.25-6.4,5.7-8.92,0,18.46.01,36.91-.06,55.37,0,.48-.89,1.37-1.37,1.37-40.01.06-80.01.06-120.02.06,1.74-3.24,4.17-6.72,4.85-10.39.82-4.45-2.06-8.44-3.82-12.32-1.94-4.27-2.45-8.4-7.51-9.07-2.7-.36-9.18-2.23-11.65-.92-3.04,1.62-3.18,8.92-4.14,11.92-.64,2.01-1.78,3.59-2.49,5.52-.61,1.64-.48,3.38-1.32,4.97-2.99,5.64-12.94,3.21-13.57,10.29h-4.29c-2.46-2.28-5.11-2.4-7.75-4.24-3.24-2.26-5.9-5.47-8.55-8.35-2.14-2.33-4.18-3.12-7.02-4.39-3.24-1.45-4.34-3.18-6.11-6.18-3.64-6.16-8.07-12.06-15.15-13.99-3.36-.92-6.09-1.82-9.04-3.7-2.86-1.81-4.11-1.24-7.57-1.23.59,3.9-3.89,4.86-6.64,6.83-3.9,2.8-6.12,2.56-5.35,8.01-6.32-1.76-11.35-.03-12.25,7.28-.49,3.93,2.03,4.76,3.59,7.83,1.78,3.48,2.05,8.34,2.9,12.14h-43.22c-.93-4.35-2.36-8.54-3.72-12.78-1.02-3.18-1.7-7.79-3.58-10.59-2.45-3.63-8.91-3.36-12.11-.95-.84.63-.79,1.59-1.82,2.06-1.2.55-3.88-.33-5.23-.54-4.24-.66-3.91-1.41-5.51-5.22-.86-2.06-2.42-7.72-5.38-7.56-1.76.1-3.72,2.38-3.82,3.76-.19,2.81,4.14,4.72,3.49,7.61-.5,2.25-.95.69-2.56.8-1.19.08-3.22,1.01-4.28.85-2.44-.36-2.71-3.76-3.93-5.37-1.45-1.92-3.72-2.92-5.86-3.86-2.67-1.16-3.44-1.5-4.1,1.33-.65,2.79.09,6.91.09,9.78,0,4.01-.42,7.37,1.58,10.85,1.15-.97,2.38-1.78,3.12-3.05.4-.69.08-1.91.85-2.47,1.3-.93,5.01,1.69,6.29,2.73,2.44,1.97.99,2.76.03,5.31-1.04,2.74.27,4.83,1.42,7.31-7.8,0-15.6.02-23.4-.05-.42,0-1.2-.78-1.2-1.2C0,158.72,0,140.08,0,121.45c3.84-1.5,5.95-1.88,6.47-6.63.22-1.99-.53-3.49-.83-5.43-.33-2.14.09-4.21.32-6.34.28-2.63-1.85-8.14,1.99-7.89,1.64.11,2.45.88,2.41,2.87-.04,2.18-.66,2.28-2.95,2.73.91,1.28,2.09,1.16,3.49.78,1.04,5.29-1.27,12.35,1.37,17.05,2.56-1.85,2.87-5.61,4.69-8.37,1.87-2.85,4.3-4.9,7.17-6.74,5.37-3.45,5.7,3.43,9.5,5.93.24-1.03.47-2.04.64-3.08,2.73,2.79,7.39.76,9.67,3.78,2.34,3.1,2.93,7.65,5.24,10.91.95,1.34,1.73,2.05,1.61,3.79-.1,1.47-1.84,2.76.52,2.84,2.06.07,4.15-2.11,6.65-1.95,2.4.16,4.16,1.38,6.06,2.71,3.73,2.63,5.65,2.26,9.29-.33,2.76-1.96,5.51-4.49,7.35-7.35,1.78-2.78,4.74-4.12,6.24-6.88.84-1.54.85-3.31,2.54-4.32,1.6-.96,3.22-.13,4.81-1.11-3.07-2.26-2.38-6.55-1.35-9.68,1.5-4.56,5.14-2.68,8.38-5.09,2.71-2.01,3.38-8.09,2.41-11.09-.62-1.92-2.78-2.61-3.25-4.58-.44-1.82,1.07-3.27,1.09-5.1.05-3.65-2.32-6.44.88-9.55,2.52-2.45,9.02-2.64,8.29-7.34-.6-3.85-6.66-7.26-9.54-9.38-.74-.54-2.91-1.89-2.78-2.76.33-2.11,3.39-.46,4.29-.09-.18-4.96-2.3-8.59-.39-13.51,1.11-2.87,1.46-6.4-.39-9.22-2.95-4.48-13.48-3.33-17.55-1.5-5.06,2.28-15.73,12.85-10.99,18.77,2.48,3.09,5.51,3.08,5.95,7.72.45,4.67.76,6.96,5.02,9.66-1.21,1.3-3.36,2.91-2.98,4.69.18.84,1.5,1.4,2.01,2.12.9,1.3,1.32,3.29,1.88,4.75-2.09.33-2.68.83-3.79-.59-.73-.92-.54-3.9-.68-5.06-1.26.53-2.52,1.07-3.78,1.6.71,1.37,1.44,2.71,2.01,4.15-.46-.24-2.39-1.69-2.79-1.32-.43.4.43,1.01.22,1.25-.72.83-.29.77-1.41,1.41-.94.54-1.58.32-2.46.99-1.14.87-.57,3.58-3.39,2.23-.42,1.34-4.76,3.9-6.01,3.64-2.19-.45-2.83-3.65-4.99-4.27-2.32-.67-4.2,1.17-6.31,1.76-2.93.81-5.06-.05-7.92-.39-5.74-.67-5.71,5.17-10.53,6.33-1.67.4-4.23.18-5.22-1.51-1.33-2.27,1.49-2.87.95-4.55-.43-1.33-4.5-1.43-5.52-1.61-3.31-.59-5.1-1.62-7.42-4.05-1.85-1.93-3.56-4.02-5.32-6.04-1.94-2.22-3.68-3.08-5.85-4.8-3.65-2.91.26-7.88-.4-11.96-.42-2.59-1.21-4.65-1.39-7.24-.15-2.21-.83-3.17-3.24-3.29Zm130.44,67.48c-.8-.48-2.55-2.28-3.42-1.92-3.51,1.44-8.35,2.77-9.69,5.57-1.86,3.89,2.89,10.4,6.34,9.96,3.1-.4,7.14-1.49,8.64-3.71,1.17-1.73-.94-5.67-1.87-9.89Zm18.27,5.89c8.31-4.72-6.23-18.23-9.87-14.17-1.33,1.48-.58,3.1.25,4.57,1.18,2.07,1.98,3.16,2.78,5.39,1.2,3.33,3.35,4.13,6.84,4.21Zm57.1,18c.58-.71,2.72-2.39,2.74-3.42.02-1.21-3.41-3.89-4.21-4.75-.88,4.1-.56,4.64,1.47,8.17Z" stroke-width="0"/>
      <path d="m357.21,121.81c-1.45,2.52-3.1,7.35-5.7,8.92-2.3,1.4-6.06.19-8.59.74-3.09.68-4.55,2.02-7.37-.12-2.34-1.77-3.52-4.81-5.52-6.92-2.06,2.31-.55,4.67,1.54,6.42,1,.83,3.06,1.71,3.37,3.15.4,1.86-.97,1.49-1.32,3.09-1.01,4.69,11.1,9.86,4.78,14.25-2.14,1.49-4.92.38-7.02,1.96-2.28,1.71-1.49,4.08-2.14,6.45-2.64,9.64-10.76-2.52-12.86-6.29-1.06-1.9-.8-7.76-2.93-8.86-2.21-1.14-5.01,1.93-6.01,3.37-3.2,4.6-9.11,9.23-14.75,5.07-3.26-2.41-1.33-6.11-.44-9.56.89-3.45,1.02-6.66,5.24-6.4,5.23.31,13.84,1.02,13.39-6.76-2.28.32-4.29,1.4-5.06-1.43-.54-1.99.82-3.69,2.68-4.66,2.46-1.28,5.85-1.16,8.5-2.19,2.31-.9,4.68-3.46,6.89-4.05,1.9-.51,4.21.47,5.91,1.33,2.23,1.13,3.16,3.71,5.14,4.79,1.51.82,3.53.23,4.27-1.75.92-2.45-1.86-4.7-3.46-6.44-1.03,2.42-1.44,4.18-4.12,3.25,2.11-1.87,2.34-2.06.03-4.19,3.35-2.83,3.97-7.54,4.52-11.59.73-5.36,1.96-10.28,3.64-15.41,1.42-4.35,3.3-8.19.96-12.44-2.29-4.15-4.21-7.02-3.43-12.04.55-3.56,2.16-6.16-.73-9.06-1.3-1.31-2.34-1.9-3.34-3.54-.61-1-1.13-2.87-2.49-3.07-2.69-.39-3.35,4.34-6.17,4.81-3.07.5-5.72-2.78-8.73-2.34-2.38.34-2.69,2.44-3.27,4.5-1.3,4.56-4.4,5.43-7.98,8.17-2.76,2.11-5.75,5.17-7.09,8.41-1.9,4.62.47,7.46,2.03,11.61,1.05,2.79.54,7.19-1.03,9.78-2.3,3.77-6.58,3.12-10.27,4.24-2.05.62-6.69,2-5.37,5.16.61,1.45,2.59,1.7,3.13,3.53.47,1.6-.14,2.95-.73,4.42-.98,2.45-2.06,8.16-4,9.67-3.53,2.73-8.35-4.16-12.04-4.41-1.76-.12-1.08.34-2.54,1.7-1.54,1.44-2.67,1.74-4.75,2.04-4.82.69-7.97-1.97-11.61-4.93-2.16-1.75-4.3-5.03-7.3-3.69-3.75,1.68-3.43,5.69-8.42,4.73-4.22-.81-8.13-1.86-12.48-2.21-.92-.07-2.24-.26-3.21-.19-2.16.15-2.11,1.48-3.57,2.36-2.81,1.68-5.24-2.64-7.31-4.93-2.86-3.17-4.46-7.28-9.24-6.9-8.01.64-19.69,6.62-27.16,1.43-2.26-1.57-1.96-4.87-3.93-7.17-2.74-3.2-6.14-4.07-5.98-8.73.15-4.33,1.25-8.54.92-12.89-.35-4.47-1.77-10.16-.65-14.59.97-3.84,4.86-7.96,6.99-11.35,1.21-1.93,2.88-3.7,2.78-6.12-.09-2.18-1.67-3-2.28-4.8-.63-1.85.23-3.89-.13-5.79-.42-2.17-1.91-4.17-3.05-6.05-2.44-4.04-6.07-7.3-8.06-11.6-.57-1.23-1.03-4.82-1.94-5.55-1.28-1.03-3.56.14-4.81.48-2.08.57-4.01.95-6.14.37-1.92-.53-3.31-2.61-5.08-2.96-1.99-.39-4.91,1.37-7.05,1.5-2.4.14-4.73-.28-6.96-1.16C121.99,6.65,116.97,3.86,114.31,0c40.36,0,80.73,0,121.09,0-2.12,2.3-4.35,3.53-6.65,5.5-2.07,1.78-1.68,3.88-4.13,5.27-5.69,3.22-13.97,3.45-18.4,8.39,1.57.6,5.54,1.24,5,3.57-.52,2.26-4.79,1.55-6.68,1.57.32,4.54-.47,6.68-3.61,9.94-2.43,2.53-5.13,5.14-7.09,8.06-2.24,3.34-1.63,5.98-.04,9.4,1.96,4.23,3.46,8.6,5.34,12.85.5-1.25,1.3-3.54,2.86-3.46,1.17.06,1.51,1.56,2.33,1.75,2.79.65,3.58-3.82,5.02-5.44.47.68.9,1.38,1.3,2.1.67-1.33-.07-2.98.76-3.85.23-.24,3.22-.05,3.86-.33-1.6-2.57-1.13-5.84-2.79-8.47-1.32-2.08-1.63-1.67-.35-3.83.7-1.19,2.5-2.48,3.54-3.36,2.06-1.76,4.34-3.7,7.22-3.03,3.36.79,7.48,4.82,10.26,6.82,2.86,2.05,3.83,2.78,1.97,6.19-1.48,2.7-3.65,6.15-5.99,8.19-2.45,2.12-11.68,5.32-8.17,9.5.56.67,2.4.83,3.15,1.49.61.54.85,1.35,1.46,1.94,1.54,1.47,4.11,2.55,6.27,2.28,4.79-.6,9.06-7.99,12.26-11.22,5.16-5.21,11-9.82,16.72-14.41,1.91-1.54,5.96-3.74,6.68-6.16.72-2.43-.87-3.49-2.72-3.55-3.07-.1-5.41,3.95-8.42,4.1-2.78.14-4.84-3.73-6.43-5.53-3.42-3.85-7.8-6.95-11.05-10.88-3.14-3.79-2.77-9.61,2.17-11.95,2.39-1.13,4.27-.4,6.45-1.97,1.76-1.27,2.99-3.06,5.02-4.03,4.19-2.02,10.28-1.94,12.99,2.21,3.12,4.79,7.05,9.19,10.05,14.07,1.4,2.27,1.88,4.98,4.96,5.13,2.05.09,4.2-1.28,6.39-1.26,4.29.03,9.15,1.42,12.34,4.35,2.17,1.99,3.64,4.97,6.43,6.25,2.86,1.31,6.4.56,9.36.11,3.91-.6,4.91-.67,7.59-3.53,1.63-1.73,4.15-5.63,6.3-6.42,3.4-1.25,3.63,1.74,5.23,3.84,1.36,1.79,3.22,3.27,5.28,4.18,2.74,1.21,6.54,1.73,9.5,1.88,3.78.19,5.47-1.93,8.28-4.31v87.87Z" fill="#fff" stroke-width="0"/>
      <path d="m0,33.94c2.41.12,3.08,1.08,3.24,3.29.18,2.58.97,4.65,1.39,7.24.66,4.08-3.24,9.05.4,11.96,2.17,1.73,3.91,2.58,5.85,4.8,1.76,2.01,3.47,4.1,5.32,6.04,2.32,2.43,4.11,3.46,7.42,4.05,1.02.18,5.09.28,5.52,1.61.54,1.68-2.29,2.28-.95,4.55.99,1.69,3.55,1.92,5.22,1.51,4.82-1.17,4.79-7,10.53-6.33,2.86.33,5,1.2,7.92.39,2.11-.59,3.99-2.43,6.31-1.76,2.16.62,2.8,3.83,4.99,4.27,1.26.26,5.6-2.3,6.01-3.64,2.82,1.35,2.25-1.37,3.39-2.23.88-.67,1.52-.45,2.46-.99,1.12-.64.68-.58,1.41-1.41.21-.24-.66-.85-.22-1.25.39-.36,2.33,1.08,2.79,1.32-.57-1.43-1.3-2.77-2.01-4.15,1.26-.53,2.52-1.07,3.78-1.6.14,1.16-.05,4.14.68,5.06,1.12,1.42,1.7.92,3.79.59-.56-1.46-.98-3.45-1.88-4.75-.5-.73-1.83-1.29-2.01-2.12-.38-1.78,1.78-3.39,2.98-4.69-4.27-2.71-4.57-4.99-5.02-9.66-.45-4.64-3.48-4.62-5.95-7.72-4.75-5.92,5.93-16.49,10.99-18.77,4.07-1.83,14.6-2.98,17.55,1.5,1.85,2.82,1.51,6.34.39,9.22-1.9,4.92.21,8.55.39,13.51-.91-.37-3.97-2.02-4.29.09-.14.87,2.04,2.22,2.78,2.76,2.88,2.11,8.95,5.52,9.54,9.38.73,4.69-5.77,4.89-8.29,7.34-3.19,3.11-.83,5.9-.88,9.55-.02,1.84-1.53,3.28-1.09,5.1.47,1.97,2.63,2.67,3.25,4.58.97,3,.3,9.08-2.41,11.09-3.25,2.41-6.88.53-8.38,5.09-1.03,3.13-1.72,7.41,1.35,9.68-1.59.98-3.21.16-4.81,1.11-1.69,1.01-1.7,2.78-2.54,4.32-1.5,2.76-4.46,4.11-6.24,6.88-1.84,2.87-4.6,5.39-7.35,7.35-3.64,2.59-5.56,2.97-9.29.33-1.9-1.34-3.65-2.55-6.06-2.71-2.51-.17-4.6,2.02-6.65,1.95-2.36-.08-.62-1.37-.52-2.84.12-1.74-.66-2.44-1.61-3.79-2.31-3.25-2.9-7.81-5.24-10.91-2.28-3.02-6.94-.99-9.67-3.78-.17,1.04-.4,2.05-.64,3.08-3.8-2.5-4.12-9.39-9.5-5.93-2.87,1.85-5.3,3.9-7.17,6.74-1.81,2.76-2.13,6.52-4.69,8.37-2.64-4.7-.33-11.76-1.37-17.05-1.4.39-2.58.5-3.49-.78,2.28-.46,2.9-.55,2.95-2.73.04-2-.77-2.77-2.41-2.87-3.84-.25-1.71,5.26-1.99,7.89-.23,2.12-.65,4.2-.32,6.34.3,1.93,1.05,3.43.83,5.43-.52,4.75-2.63,5.13-6.47,6.63,0-29.17,0-58.34,0-87.51Z" fill="#fff" stroke-width="0"/>
      <path d="m357.21,33.94c-2.81,2.38-4.5,4.5-8.28,4.31-2.96-.15-6.76-.67-9.5-1.88-2.06-.91-3.92-2.39-5.28-4.18-1.6-2.1-1.83-5.1-5.23-3.84-2.14.79-4.67,4.69-6.3,6.42-2.68,2.86-3.68,2.94-7.59,3.53-2.96.45-6.5,1.2-9.36-.11-2.79-1.28-4.26-4.26-6.43-6.25-3.19-2.93-8.04-4.32-12.34-4.35-2.2-.02-4.35,1.35-6.39,1.26-3.08-.14-3.56-2.86-4.96-5.13-3.01-4.87-6.93-9.28-10.05-14.07-2.71-4.16-8.79-4.23-12.99-2.21-2.03.98-3.26,2.76-5.02,4.03-2.18,1.57-4.06.84-6.45,1.97-4.94,2.34-5.31,8.16-2.17,11.95,3.25,3.93,7.63,7.04,11.05,10.88,1.6,1.8,3.66,5.67,6.43,5.53,3-.15,5.35-4.19,8.42-4.1,1.85.06,3.44,1.12,2.72,3.55-.71,2.42-4.76,4.63-6.68,6.16-5.71,4.59-11.56,9.2-16.72,14.41-3.2,3.23-7.47,10.62-12.26,11.22-2.16.27-4.73-.8-6.27-2.28-.61-.59-.85-1.4-1.46-1.94-.76-.67-2.59-.83-3.15-1.49-3.5-4.18,5.73-7.38,8.17-9.5,2.35-2.03,4.52-5.48,5.99-8.19,1.86-3.41.89-4.14-1.97-6.19-2.78-2-6.9-6.03-10.26-6.82-2.87-.67-5.16,1.27-7.22,3.03-1.04.89-2.84,2.18-3.54,3.36-1.28,2.16-.96,1.75.35,3.83,1.66,2.63,1.2,5.89,2.79,8.47-.64.28-3.63.09-3.86.33-.83.87-.09,2.52-.76,3.85-.4-.72-.83-1.42-1.3-2.1-1.43,1.62-2.23,6.09-5.02,5.44-.82-.19-1.16-1.69-2.33-1.75-1.55-.08-2.35,2.21-2.86,3.46-1.88-4.25-3.39-8.62-5.34-12.85-1.59-3.42-2.19-6.06.04-9.4,1.95-2.92,4.65-5.53,7.09-8.06,3.14-3.26,3.93-5.4,3.61-9.94,1.89-.02,6.16.69,6.68-1.57.54-2.34-3.43-2.98-5-3.57,4.43-4.95,12.7-5.18,18.4-8.39,2.45-1.39,2.06-3.49,4.13-5.27,2.3-1.97,4.53-3.2,6.65-5.5,40.13,0,80.25,0,120.38.06.48,0,1.36.89,1.37,1.37.08,10.83.06,21.67.06,32.5Z" stroke-width="0"/>
      <path d="m112.88,178.6c-.85-3.79-1.12-8.66-2.9-12.14-1.57-3.07-4.08-3.89-3.59-7.83.91-7.31,5.93-9.04,12.25-7.28-.77-5.45,1.45-5.21,5.35-8.01,2.74-1.97,7.22-2.92,6.64-6.83,3.47,0,4.72-.58,7.57,1.23,2.95,1.87,5.68,2.78,9.04,3.7,7.08,1.93,11.52,7.83,15.15,13.99,1.77,3,2.87,4.72,6.11,6.18,2.84,1.27,4.87,2.06,7.02,4.39,2.65,2.88,5.31,6.09,8.55,8.35,2.64,1.84,5.28,1.96,7.75,4.24h-78.94Z" fill="#fff" stroke-width="0"/>
      <path d="m24.65,178.6c-1.15-2.47-2.46-4.57-1.42-7.31.97-2.55,2.41-3.34-.03-5.31-1.28-1.04-4.99-3.66-6.29-2.73-.77.55-.44,1.77-.85,2.47-.74,1.27-1.97,2.08-3.12,3.05-2.01-3.48-1.57-6.84-1.58-10.85,0-2.87-.74-6.99-.09-9.78.66-2.83,1.43-2.49,4.1-1.33,2.14.94,4.41,1.94,5.86,3.86,1.22,1.61,1.5,5.01,3.93,5.37,1.06.16,3.08-.77,4.28-.85,1.61-.11,2.06,1.45,2.56-.8.65-2.9-3.68-4.8-3.49-7.61.09-1.38,2.05-3.66,3.82-3.76,2.96-.17,4.52,5.49,5.38,7.56,1.59,3.81,1.26,4.56,5.51,5.22,1.35.21,4.03,1.09,5.23.54,1.02-.46.97-1.42,1.82-2.06,3.19-2.41,9.66-2.68,12.11.95,1.88,2.8,2.56,7.41,3.58,10.59,1.36,4.24,2.78,8.42,3.72,12.78H24.65Z" fill="#fff" stroke-width="0"/>
      <path d="m196.11,178.6c.63-7.08,10.58-4.65,13.57-10.29.84-1.59.71-3.33,1.32-4.97.72-1.93,1.85-3.51,2.49-5.52.96-3,1.1-10.3,4.14-11.92,2.47-1.31,8.95.56,11.65.92,5.06.67,5.57,4.79,7.51,9.07,1.76,3.89,4.64,7.87,3.82,12.32-.68,3.67-3.11,7.15-4.85,10.39h-39.65Z" fill="#fff" stroke-width="0"/>
      <path d="m70.37,0c3.16,5.06,3.83,9.4-2.6,11.85-5.91,2.25-13,5.49-19.34,6.04-4.55.4-6.95-1.93-9.31-5.52-1.62-2.46-3.42-3.54-5.76-5.25C30.56,5.09,28.2,2.41,25.72,0c14.88,0,29.77,0,44.65,0Z" fill="#fff" stroke-width="0"/>
      <path d="m130.44,101.42c.93,4.22,3.04,8.16,1.87,9.89-1.49,2.22-5.54,3.31-8.64,3.71-3.44.44-8.2-6.07-6.34-9.96,1.34-2.81,6.18-4.14,9.69-5.57.87-.36,2.62,1.44,3.42,1.92Z" fill="#fff" stroke-width="0"/>
      <path d="m148.71,107.31c-3.49-.08-5.64-.88-6.84-4.21-.8-2.22-1.6-3.32-2.78-5.39-.84-1.47-1.58-3.09-.25-4.57,3.64-4.05,18.18,9.45,9.87,14.17Z" fill="#fff" stroke-width="0"/>
      <path d="m205.8,125.3c-2.04-3.53-2.35-4.07-1.47-8.17.8.86,4.23,3.54,4.21,4.75-.02,1.03-2.16,2.71-2.74,3.42Z" fill="#fff" stroke-width="0"/>
    </g>
  </g>
</svg>